{"title":"Canadian Election 2011 - Leaders Debate","uid":6316776,"size":962221895,"categoryP":"video","categoryS":"tv_shows","magnet":"?xt=urn:btih:48c787cb92d866ff3d38995ecf33394410070fbe&amp;dn=Canadian+Election+2011+-+Leaders+Debate&amp;tr=udp%3A%2F%2Ftracker.openbittorrent.com%3A80&amp;tr=udp%3A%2F%2Fopen.demonii.com%3A1337&amp;tr=udp%3A%2F%2Ftracker.coppersurfer.tk%3A6969&amp;tr=udp%3A%2F%2Fexodus.desync.com%3A6969","seeders":0,"leechers":0,"uploader":"tronik123","files":3,"time":1302731337,"description":"Canadian Election Debate 2011\n\nDescription:  Debate between Canadian Political Leaders for upcoming Election, featuring Jack Layton (NDP), Stephen Harper (Conservative), Michael Ignatieff (Liberal), and Gilles Duceppe (Bloc Quebecios). \n\nSource:  CBC-HD \n\n\nGeneral\nComplete name                    : Canadian.Election.2011-Leaders.Debate/Canadian.Election.Debate.2011.mp4\nFormat                           : MPEG-4\nFormat profile                   : Base Media / Version 2\nCodec ID                         : mp42\nFile size                        : 918 MiB\nDuration                         : 2h 0mn\nOverall bit rate                 : 1 069 Kbps\nEncoded date                     : UTC 2011-04-13 09:20:17\nTagged date                      : UTC 2011-04-13 13:45:24\nWriting application              : HandBrake 0.9.5 2011010300\n\nVideo\nID                               : 1\nFormat                           : AVC\nFormat/Info                      : Advanced Video Codec\nFormat profile                   : &lt;a class=&quot;__cf_email__&quot; href=&quot;/cdn-cgi/l/email-protection&quot; data-cfemail=&quot;3a72535d527a760e140b&quot;&gt;[email&amp;#160;protected]&lt;/a&gt;&lt;script cf-hash='f9e31' type=&quot;text/javascript&quot;&gt;\n/* &lt;![CDATA[ */!function(){try{var t=&quot;currentScript&quot;in document?document.currentScript:function(){for(var t=document.getElementsByTagName(&quot;script&quot;),e=t.length;e--;)if(t[e].getAttribute(&quot;cf-hash&quot;))return t[e]}();if(t&amp;&amp;t.previousSibling){var e,r,n,i,c=t.previousSibling,a=c.getAttribute(&quot;data-cfemail&quot;);if(a){for(e=&quot;&quot;,r=parseInt(a.substr(0,2),16),n=2;a.length-n;n+=2)i=parseInt(a.substr(n,2),16)^r,e+=String.fromCharCode(i);e=document.createTextNode(e),c.parentNode.replaceChild(e,c)}}}catch(u){}}();/* ]]&gt; */&lt;/script&gt;\nFormat settings, CABAC           : Yes\nFormat settings, ReFrames        : 4 frames\nCodec ID                         : avc1\nCodec ID/Info                    : Advanced Video Coding\nDuration                         : 2h 0mn\nBit rate mode                    : Variable\nBit rate                         : 1 000 Kbps\nWidth                            : 848 pixels\nHeight                           : 480 pixels\nDisplay aspect ratio             : 16:9\nOriginal display aspect ratio    : 16:9\nFrame rate mode                  : Constant\nFrame rate                       : 29.970 fps\nColor space                      : YUV\nChroma subsampling               : 4:2:0\nBit depth                        : 8 bits\nScan type                        : Progressive\nBits/(Pixel*Frame)               : 0.082\nStream size                      : 858 MiB (94%)\nWriting library                  : x264 core 112\nEncoding settings                : cabac=1 / ref=4 / deblock=1:0:0 / analyse=0x3:0x113 / me=hex / subme=7 / psy=1 / psy_rd=1.00:0.00 / mixed_ref=1 / me_range=16 / chroma_me=1 / trellis=1 / 8x8dct=1 / cqm=0 / deadzone=21,11 / fast_pskip=1 / chroma_qp_offset=-2 / threads=3 / sliced_threads=0 / slices=4 / nr=0 / decimate=1 / interlaced=0 / constrained_intra=0 / bframes=4 / b_pyramid=2 / b_adapt=2 / b_bias=0 / direct=1 / weightb=1 / open_gop=0 / weightp=2 / keyint=300 / keyint_min=29 / scenecut=40 / intra_refresh=0 / rc_lookahead=50 / rc=2pass / mbtree=1 / bitrate=1000 / ratetol=1.0 / qcomp=0.60 / qpmin=3 / qpmax=51 / qpstep=4 / cplxblur=20.0 / qblur=0.5 / vbv_maxrate=40000 / vbv_bufsize=30000 / ip_ratio=1.40 / aq=1:1.00 / nal_hrd=none\nEncoded date                     : UTC 2011-04-13 09:20:17\nTagged date                      : UTC 2011-04-13 13:45:24\nColor primaries                  : BT.709-5, BT.1361, IEC 61966-2-4, SMPTE RP177\nTransfer characteristics         : BT.709-5, BT.1361\nMatrix coefficients              : BT.709-5, BT.1361, IEC 61966-2-4 709, SMPTE RP177\n\nAudio\nID                               : 2\nFormat                           : AAC\nFormat/Info                      : Advanced Audio Codec\nFormat version                   : Version 4\nFormat profile                   : LC\nCodec ID                         : 40\nDuration                         : 1h 59mn\nBit rate mode                    : Variable\nBit rate                         : 64.2 Kbps\nMaximum bit rate                 : 76.6 Kbps\nChannel(s)                       : 2 channels\nChannel positions                : Front: L R\nSampling rate                    : 48.0 KHz\nStream size                      : 55.1 MiB (6%)\nEncoded date                     : UTC 2011-04-13 09:20:17\nTagged date                      : UTC 2011-04-13 13:45:23\n\n","torrent":{"xt":"urn:btih:48c787cb92d866ff3d38995ecf33394410070fbe","amp;dn":"Canadian+Election+2011+-+Leaders+Debate","amp;tr":["udp%3A%2F%2Ftracker.openbittorrent.com%3A80","udp%3A%2F%2Fopen.demonii.com%3A1337","udp%3A%2F%2Ftracker.coppersurfer.tk%3A6969","udp%3A%2F%2Fexodus.desync.com%3A6969"],"infoHash":"48c787cb92d866ff3d38995ecf33394410070fbe","infoHashBuffer":{"type":"Buffer","data":[72,199,135,203,146,216,102,255,61,56,153,94,207,51,57,68,16,7,15,190]},"announce":[],"urlList":[]}}